# xmcd
#
# Track frame offsets:
#	151
#	608
#	19523
#	29267
#	42382
#	58783
#	73800
#	92403
#	109100
#	110599
#	128481
#	149258
#	162023
#	168446
#	190741
#	191980
#	207072
#	212688
#	224171
#	251924
#	267384
#	279618
#
# Disc length: 3959 seconds
#
# Revision: 1
# Processed by: cddbd v1.5.2PL0 Copyright (c) Steve Scherf et al.
# Submitted via: audiograbber 1.83.01
#
DISCID=4a0f7516
DTITLE=Bob DiPiero - Live At The Bluebird Cafe
DYEAR=2001
DGENRE=Country
TTITLE0=What In The World Are You Drinkin'?
TTITLE1=Church On Cumberland Road
TTITLE2=Tore My Ass
TTITLE3=Money In The Bank
TTITLE4=Pino The Squid
TTITLE5=They're Playin' Our Song
TTITLE6=Rednecks In Cyberspace
TTITLE7=Mirror, Mirror
TTITLE8=Clifford Curry
TTITLE9=25 Hours A Day
TTITLE10=Forrest Gump
TTITLE11=Blue Clear Sky
TTITLE12=Songwriter's Revenge
TTITLE13=Draggin' The Lake For The Moon
TTITLE14=Gerry House/Turkey
TTITLE15=Daddy's Money
TTITLE16=Food Junkie
TTITLE17=Wink
TTITLE18=My Brutha
TTITLE19=Worlds Apart
TTITLE20=Naked Dog Feeding
TTITLE21=Laugh
EXTD=
EXTT0=
EXTT1=
EXTT2=
EXTT3=
EXTT4=
EXTT5=
EXTT6=
EXTT7=
EXTT8=
EXTT9=
EXTT10=
EXTT11=
EXTT12=
EXTT13=
EXTT14=
EXTT15=
EXTT16=
EXTT17=
EXTT18=
EXTT19=
EXTT20=
EXTT21=
PLAYORDER=
